<svg xml:space="preserve" style="enable-background:new 0 0 1024 1024;" viewBox="0 0 1024 1024" y="0px" x="0px" xmlns:xlink="http://www.w3.org/1999/xlink" xmlns="http://www.w3.org/2000/svg" id="图层_1" version="1.1">
<style type="text/css">
	.st0{fill:#FFFFFF;}
	.st1{fill:#ADABB4;}
	.st2{fill:#C6A355;}
	.st3{fill:#EFC4AD;}
	.st4{fill:#FFFDFE;}
	.st5{fill:#384F8D;}
	.st6{fill:#AEDBEB;}
	.st7{fill:#280F12;}
	.st8{fill:#574840;}
	.st9{fill:#C34531;}
	.st10{fill:#E9715A;}
	.st11{fill:#E69F7D;}
	.st12{fill:#F2B3CE;}
	.st13{fill:#203F7D;}
	.st14{fill:#D2AC9D;}
	.st15{fill:#EDE6E9;}
	.st16{fill:#EDC968;}
	.st17{opacity:0.8;}
	.st18{fill:#E3805A;}
	.st19{fill:#FFFFFF;stroke:#000000;stroke-width:0.5;stroke-miterlimit:10;}
	.st20{fill:#4070AF;}
	.st21{fill:#E37B6F;}
	.st22{fill:#F3A596;}
	.st23{fill:#EEC4AE;}
	.st24{fill:#CAAB9E;}
	.st25{fill:#F2E7D8;}
	.st26{fill:#ACA18C;}
	.st27{clip-path:url(#SVGID_4_);}
	.st28{fill:#F2E8D7;}
	.st29{fill:#C5603F;}
	.st30{fill:#D6AA98;}
	.st31{opacity:0.31;}
	.st32{fill:#B45D42;}
	.st33{stroke:#000000;stroke-width:0.25;stroke-miterlimit:10;}
	.st34{stroke:#000000;stroke-width:0.5;stroke-miterlimit:10;}
	.st35{fill:url(#SVGID_7_);}
	.st36{opacity:0.97;fill:#FFFFFF;}
	.st37{fill:url(#SVGID_8_);}
	.st38{stroke:#000000;stroke-miterlimit:10;}
	.st39{opacity:0.67;}
	.st40{fill:#E9CA48;}
	.st41{opacity:0.67;fill:#FFFFFF;}
	.st42{clip-path:url(#SVGID_12_);}
	.st43{fill:#E3DEDE;}
	.st44{fill:#E4D24C;}
	.st45{fill:#876664;}
	.st46{fill:#A1C045;}
</style>
<g>
	<g>
		<path d="M1108.26,309.91L-69.65,989.98c-6.63,3.83-15.18,1.53-19.01-5.09l-0.32-0.55
			c-3.83-6.63-1.53-15.18,5.09-19.01l1177.91-680.07c6.63-3.83,15.18-1.53,19.01,5.09l0.32,0.55
			C1117.18,297.54,1114.89,306.09,1108.26,309.91z" class="st16"></path>
		<g>
			<path d="M1106.82,307.45c-10.78,6.23-21.56,12.45-32.35,18.68c-29.08,16.79-58.16,33.58-87.24,50.37
				c-43.18,24.93-86.35,49.86-129.53,74.78c-52.25,30.16-104.49,60.33-156.74,90.49c-57.22,33.04-114.44,66.07-171.66,99.11
				c-57.52,33.21-115.03,66.41-172.55,99.62c-53.13,30.68-106.27,61.35-159.4,92.03c-44.67,25.79-89.33,51.58-134,77.37
				c-31.16,17.99-62.31,35.97-93.47,53.96c-13.43,7.75-26.68,16.1-40.4,23.33c-12.98,6.84-24.49-11.19-11.93-19.38
				c0.73-0.48,1.52-0.88,2.28-1.32c5.51-3.18,11.01-6.36,16.52-9.54c25.2-14.55,50.4-29.1,75.61-43.65
				c39.99-23.09,79.98-46.17,119.96-69.26c50.54-29.18,101.08-58.36,151.63-87.54c56.47-32.6,112.93-65.2,169.4-97.8
				c57.69-33.31,115.38-66.61,173.07-99.92c54.89-31.69,109.78-63.38,164.68-95.08c46.93-27.09,93.86-54.19,140.79-81.28
				c34.98-20.19,69.96-40.39,104.94-60.58c18.1-10.45,36.2-20.9,54.3-31.35c1.37-0.79,2.71-1.63,4.11-2.37
				C1107.64,281.32,1119.57,299.06,1106.82,307.45c-3.06,2.01-0.2,6.96,2.88,4.93c18.18-11.96,2.28-39.6-17.12-29.59
				c-0.76,0.39-1.49,0.86-2.23,1.29c-5.62,3.25-11.24,6.49-16.86,9.74c-25.71,14.84-51.41,29.68-77.12,44.52
				c-41.04,23.7-82.09,47.39-123.13,71.09c-51.48,29.72-102.97,59.45-154.45,89.17c-57.33,33.1-114.66,66.2-171.98,99.3
				c-58.65,33.86-117.29,67.72-175.94,101.58c-55.07,31.79-110.13,63.59-165.2,95.38c-46.75,26.99-93.5,53.98-140.25,80.97
				c-33.55,19.37-67.09,38.73-100.64,58.1c-16.02,9.25-32.11,18.4-48.07,27.75c-1.36,0.8-2.71,1.52-3.96,2.51
				c-16.22,12.8,1.17,37.49,19.05,28.25c3.05-1.58,5.99-3.46,8.97-5.18c21.3-12.3,42.6-24.59,63.89-36.89
				c37.65-21.74,75.3-43.47,112.94-65.21c49.34-28.48,98.67-56.97,148.01-85.45c56.5-32.62,113.01-65.24,169.51-97.87
				c58.8-33.95,117.6-67.9,176.41-101.85c56.36-32.54,112.73-65.08,169.09-97.63c49.06-28.32,98.12-56.65,147.18-84.97
				c37.23-21.5,74.46-42.99,111.7-64.49c20.74-11.98,41.48-23.95,62.22-35.93c2.66-1.54,5.32-3.07,7.99-4.61
				C1112.89,310.54,1110.02,305.6,1106.82,307.45z"></path>
		</g>
	</g>
	<g>
		<polygon points="834.27,474.64 1021.26,517.04 851.2,434.88 937.4,369.01 842.15,397.92 865.29,375.18 
			909.17,332.07 828.03,379.45 847.62,318.53 805.87,350.44 809.19,201.24 762.44,344.24" class="st16"></polygon>
		<g>
			<path d="M833.51,477.39c54.72,12.41,109.44,24.81,164.15,37.22c7.61,1.73,15.22,3.45,22.83,5.18c3,0.68,5.25-3.75,2.2-5.22
				c-49.56-23.94-99.12-47.88-148.67-71.83c-7.13-3.44-14.25-6.89-21.38-10.33c0,1.64,0,3.29,0,4.93
				c25.16-19.23,50.33-38.46,75.49-57.69c3.57-2.73,7.14-5.45,10.71-8.18c2.37-1.81,1.17-6.25-2.2-5.22
				c-27.77,8.43-55.54,16.85-83.31,25.28c-3.98,1.21-7.96,2.41-11.94,3.62c0.93,1.59,1.85,3.18,2.78,4.78
				c22.34-21.95,44.68-43.9,67.02-65.84c2.32-2.27-0.65-6.13-3.46-4.49c-27.05,15.79-54.09,31.58-81.14,47.37
				c1.4,1.08,2.8,2.15,4.2,3.23c6.53-20.31,13.06-40.61,19.59-60.92c0.71-2.21-2.18-4.77-4.2-3.23
				c-13.92,10.64-27.84,21.27-41.76,31.91c1.43,0.82,2.87,1.64,4.3,2.47c0.97-43.6,1.94-87.2,2.91-130.8
				c0.14-6.13,0.27-12.26,0.41-18.39c0.07-3.32-4.63-3.75-5.61-0.76c-13.7,41.9-27.4,83.8-41.1,125.7c-1.73,5.28-5,11.57-5.6,17.13
				c-0.39,3.68,3.52,8.35,5.2,11.4c12.32,22.37,24.65,44.74,36.97,67.1c9.97,18.09,19.93,36.18,29.9,54.27
				c1.77,3.22,6.71,0.34,4.93-2.88c-21.06-38.22-42.11-76.44-63.17-114.66c-1.98-3.59-3.96-7.18-5.93-10.77
				c-0.27-0.5-2.08-4.75-2.65-4.8c0.1,0.01-0.54,2.24,0.33,1.65c0.37-0.25,0.6-1.85,0.74-2.26c1-3.06,2-6.12,3-9.17
				c8.03-24.56,16.06-49.12,24.09-73.68c6.27-19.17,12.53-38.33,18.8-57.5c-1.87-0.25-3.74-0.51-5.61-0.76
				c-0.97,43.6-1.94,87.2-2.91,130.8c-0.14,6.13-0.27,12.26-0.41,18.39c-0.04,1.98,2.54,3.81,4.3,2.47
				c13.92-10.64,27.84-21.27,41.76-31.91c-1.4-1.08-2.8-2.15-4.2-3.23c-6.53,20.31-13.06,40.61-19.59,60.92
				c-0.78,2.41,2.11,4.45,4.2,3.23c27.05-15.79,54.09-31.58,81.14-47.37c-1.15-1.5-2.31-2.99-3.46-4.49
				c-22.34,21.95-44.68,43.9-67.02,65.84c-2.01,1.97,0.03,5.61,2.78,4.78c27.77-8.43,55.54-16.85,83.31-25.28
				c3.98-1.21,7.96-2.41,11.94-3.62c-0.73-1.74-1.47-3.48-2.2-5.22c-25.16,19.23-50.33,38.46-75.49,57.69
				c-3.57,2.73-7.14,5.45-10.71,8.18c-1.53,1.17-2.15,3.9,0,4.93c49.56,23.94,99.12,47.88,148.67,71.83
				c7.13,3.44,14.25,6.89,21.38,10.33c0.73-1.74,1.47-3.48,2.2-5.22c-54.72-12.41-109.44-24.81-164.15-37.22
				c-7.61-1.73-15.22-3.45-22.83-5.18C831.45,471.07,829.92,476.58,833.51,477.39z"></path>
		</g>
	</g>
	<polygon points="818.56,466.84 942.67,494.98 829.8,440.45 887.01,396.73 823.78,415.92 839.14,400.83 868.27,372.21 
		814.42,403.66 827.42,363.22 799.7,384.4 801.91,285.37 770.87,380.29" class="st0"></polygon>
	<g>
		<path d="M407.3,425.44c-44.48,31.41-69.8,83.11-69.3,137.56c0.08,9.2,1.78,17.47,0.55,23.47
			c-3.47,16.83-50.92,90.29,37.55,157.66c39.16,29.82,87.43,45.63,136.65,45.25c62.42-0.48,150.17-22.6,206.72-127.7
			c0,0,0.25-0.56,0.71-1.6c34.29-77.93,17.69-169.75-43.55-228.89c-45.4-43.85-113.49-75.09-208.97-37.31
			C467.65,393.87,438.85,403.16,407.3,425.44z" class="st3"></path>
		<path d="M405.5,422.36c-39.86,28.35-65.22,73.02-70.18,121.59c-0.63,6.14-0.93,12.32-0.89,18.49c0.05,6.88,1.32,13.79,0.95,20.66
			c-0.21,4-1.94,7.79-3.37,11.48c-4.49,11.56-8.67,23.2-10.87,35.45c-2.98,16.61-2.59,33.72,2.27,49.95
			c6.54,21.81,20.43,40.6,37.11,55.8c40.45,36.87,95.28,56.98,149.81,57.16c34.08,0.11,68.24-6.36,99.45-20.2
			c40.19-17.82,73.35-47.98,97.74-84.3c6.92-10.3,13.52-20.96,18.23-32.46c4.63-11.33,8.27-23.07,10.83-35.05
			c5.02-23.45,6.06-47.69,2.95-71.46c-6.19-47.22-28.61-91.27-63.49-123.76c-30.68-28.58-68.92-47.98-111.01-51.66
			c-25.45-2.23-51.21,1.29-75.64,8.52c-16.62,4.92-33.29,11.27-48.83,18.96C428.36,407.57,416.64,414.54,405.5,422.36
			c-3.72,2.61-0.17,8.79,3.6,6.15c17.46-12.26,36.51-22.85,56.59-30.19c20.71-7.57,41.45-14.28,63.49-16.68
			c42.84-4.67,84.81,6.38,119.95,31.24c36.09,25.53,63.37,62.39,76.28,104.74c13.61,44.67,11.14,93.29-6.53,136.48
			c-4.59,11.23-11.36,21.69-18.15,31.71c-6.63,9.78-13.9,19.12-21.84,27.87c-14.03,15.47-30.09,29.03-47.92,39.93
			c-29.54,18.04-63.27,28.33-97.69,31.27c-47.18,4.03-94.69-5.82-135.44-30.29c-37.27-22.39-71.45-57.51-71.54-103.55
			c-0.03-13.93,2.94-27.58,7.42-40.72c2.89-8.47,7.9-17.19,8.71-26.2c0.59-6.55-0.68-13.19-0.86-19.74
			c-0.15-5.9,0.1-11.84,0.6-17.72c1.03-11.84,3.37-23.56,6.89-34.91c6.88-22.16,18.52-42.88,34.08-60.12
			c7.78-8.62,16.48-16.38,25.94-23.11C412.8,425.88,409.25,419.69,405.5,422.36z"></path>
	</g>
	<path d="M813.74,602.75c-6.84,21.81-28.13,55.52-94.28,63.56l12.19-101.45c0,0,52.83-36.98,76.96-1.28
		C816.35,575.02,817.87,589.57,813.74,602.75z" class="st2"></path>
	<path d="M286.84,548.16c0,0,51.19,46.71,55.93,74.45l-5.44-66.07c0,0-4.36-46.37,3.25-57
		C348.19,488.91,280.79,498.69,286.84,548.16z" class="st2"></path>
	<g>
		<g>
			
				<ellipse ry="42.46" rx="36.29" cy="572.89" cx="584.52" class="st0" transform="matrix(0.0757 -0.9971 0.9971 0.0757 -30.9602 1112.376)"></ellipse>
		</g>
		<g>
			<path d="M549.25,572.68c-0.52,15.15,13.23,28.07,30.69,28.86c17.47,0.79,32.04-10.85,32.56-25.99
				c0.51-15.15-13.23-28.07-30.69-28.86C564.34,545.9,549.77,557.54,549.25,572.68z" class="st7"></path>
		</g>
		<g>
			<path d="M531.7,562.37c2.94-4.8,6.79-9.05,11.02-12.91c4.28-3.81,9.07-7.17,14.34-9.77
				c5.25-2.65,11.01-4.43,16.95-5.33c5.95-0.83,12.07-0.68,18,0.37c11.89,2.21,22.74,7.85,31.93,14.98
				c2.32,1.77,4.56,3.63,6.68,5.59c2.15,1.99,4.13,3.92,6.29,5.71c2.14,1.79,4.53,3.33,6.97,4.79c1.23,0.72,2.49,1.37,3.79,1.95
				c1.29,0.53,2.68,1.12,4.11,0.88c-1.39,0.46-2.93,0.08-4.33-0.26c-1.42-0.38-2.79-0.92-4.13-1.48c-2.69-1.14-5.27-2.52-7.76-4.11
				c-2.5-1.56-4.75-3.47-6.99-5.15c-2.28-1.69-4.55-3.36-6.91-4.91c-9.37-6.21-19.62-11.22-30.52-13.14
				c-10.85-2.06-22.14-0.67-32.32,3.62c-5.09,2.14-9.95,4.89-14.47,8.15C539.8,554.58,535.55,558.26,531.7,562.37z" class="st7"></path>
		</g>
		<g>
			<path d="M626.48,584.8c-1.82,4.37-4.6,8.36-7.89,11.92c-3.28,3.58-7.24,6.61-11.6,9.04l-1.64,0.9
				c-0.56,0.28-1.15,0.51-1.72,0.76c-1.16,0.48-2.29,1.04-3.48,1.45c-2.4,0.79-4.82,1.54-7.33,1.91c-2.48,0.56-5.02,0.69-7.55,0.84
				c-1.27,0.13-2.53-0.03-3.8-0.06l-3.79-0.19l0.24,0.01c-2.06-0.07-3.74-0.35-5.53-0.73c-1.76-0.39-3.49-0.84-5.18-1.41
				c-3.4-1.08-6.6-2.61-9.68-4.28c-1.5-0.91-3.01-1.79-4.41-2.82c-0.71-0.51-1.43-0.99-2.12-1.51l-2-1.65
				c-1.36-1.06-2.55-2.31-3.79-3.49c-1.21-1.21-2.29-2.53-3.41-3.8l4.18,2.92c1.46,0.88,2.79,1.89,4.28,2.7
				c2.87,1.74,5.86,3.23,8.88,4.58c3.03,1.34,6.18,2.35,9.32,3.22c1.57,0.44,3.18,0.75,4.77,1.01c1.56,0.23,3.27,0.44,4.62,0.47
				l0.24,0.01c4.63,0.2,9.26,0.25,13.77-0.58c4.53-0.69,8.93-2.06,13.06-4c4.17-1.88,8.11-4.34,11.71-7.26
				C620.23,591.84,623.54,588.52,626.48,584.8z" class="st7"></path>
		</g>
		<g>
			<path d="M645.74,539.08c-3.29,1.82-6.91,3.01-10.6,3.86c-3.69,0.88-7.49,1.3-11.3,1.44
				c-1.91,0.07-3.82-0.04-5.73-0.11c-1.9-0.25-3.81-0.33-5.69-0.77c-3.77-0.63-7.43-1.89-10.84-3.52c3.81,0.32,7.45,0.83,11.14,0.97
				c3.67,0.2,7.32,0.29,10.97,0.14c3.65-0.06,7.31-0.32,10.97-0.67C638.33,540.06,641.99,539.6,645.74,539.08z" class="st7"></path>
		</g>
		<g>
			<path d="M655.02,548.17c-2.95,1.6-6.2,2.59-9.49,3.27c-3.3,0.69-6.68,1.04-10.08,1.02
				c-3.39,0.01-6.8-0.33-10.12-1.06c-3.33-0.66-6.55-1.83-9.55-3.36c3.4,0.22,6.63,0.66,9.9,0.82c3.25,0.24,6.49,0.31,9.72,0.31
				C641.9,549.22,648.33,548.74,655.02,548.17z" class="st7"></path>
		</g>
		<g>
			
				<ellipse ry="8.53" rx="8.23" cy="572.89" cx="568.91" class="st0" transform="matrix(0.1951 -0.9808 0.9808 0.1951 -103.9837 1019.0634)"></ellipse>
		</g>
		<g>
			<path d="M576.99,585.03c-0.08,2.27,3.67,4.29,8.38,4.5c4.7,0.21,8.58-1.46,8.66-3.73c0.08-2.27-3.67-4.29-8.38-4.5
				C580.95,581.09,577.07,582.76,576.99,585.03z" class="st0"></path>
		</g>
		<g>
			<path d="M532.46,539.97c5.64-5.45,12.56-9.65,19.99-12.61c7.45-2.96,15.49-4.52,23.57-4.88
				c8.08-0.14,16.2,0.55,24.07,2.47c3.92,0.97,7.78,2.22,11.5,3.76c3.7,1.59,7.29,3.42,10.64,5.61c-7.06-3.78-14.63-6.49-22.42-8.13
				c-7.79-1.64-15.78-2.33-23.7-2.06c-7.92,0.21-15.76,1.76-23.16,4.41c-3.71,1.32-7.3,2.95-10.72,4.88
				C538.78,535.31,535.49,537.48,532.46,539.97z" class="st7"></path>
		</g>
	</g>
	<g>
		<g>
			
				<ellipse ry="34.77" rx="32.15" cy="561.44" cx="398.77" class="st0" transform="matrix(0.0616 -0.9981 0.9981 0.0616 -186.1556 924.8851)"></ellipse>
		</g>
		<g>
			
				<ellipse ry="25.45" rx="23.85" cy="563.26" cx="401.14" class="st7" transform="matrix(0.0616 -0.9981 0.9981 0.0616 -185.7604 928.9552)"></ellipse>
		</g>
		<g>
			<path d="M441.72,556.89c-2.8-3.97-5.96-7.6-9.4-10.85c-3.41-3.28-7.15-6.14-11.11-8.49
				c-7.93-4.7-17.02-6.94-26.03-6.11c-9.03,0.71-17.8,4.19-25.94,8.82c-2.05,1.15-4.04,2.42-6.03,3.7c-1.96,1.27-3.96,2.75-6.12,3.9
				c-2.16,1.17-4.38,2.16-6.66,2.92c-1.14,0.38-2.3,0.73-3.49,0.93c-1.17,0.17-2.45,0.38-3.55-0.16c1.15,0.34,2.32-0.06,3.42-0.4
				c1.11-0.39,2.19-0.85,3.25-1.37c2.11-1.06,4.18-2.2,6.07-3.59c1.91-1.38,3.68-2.91,5.6-4.47c1.9-1.54,3.87-2.97,5.91-4.32
				c8.07-5.45,17.37-9.44,27.24-10.31c4.92-0.39,9.91,0.02,14.69,1.3c4.76,1.33,9.31,3.42,13.37,6.23c4.08,2.77,7.71,6.16,10.88,9.9
				C436.93,548.3,439.72,552.39,441.72,556.89z" class="st7"></path>
		</g>
		<g>
			<path d="M362.66,568.08c2.09,3.54,4.51,6.78,7.2,9.67c2.69,2.9,5.69,5.42,8.94,7.45c3.21,2.09,6.68,3.69,10.31,4.71
				c3.6,1.14,7.39,1.51,11.17,1.75l0.2,0.01c1.1,0.1,2.52,0.07,3.81,0.01c1.32-0.09,2.65-0.22,3.97-0.46c2.64-0.48,5.28-1.09,7.86-2
				c2.57-0.91,5.13-1.96,7.61-3.23c1.28-0.57,2.45-1.35,3.71-1.99l3.65-2.2c-1.02,1.01-2.01,2.08-3.09,3.04
				c-1.11,0.92-2.18,1.92-3.37,2.73l-1.77,1.28c-0.61,0.39-1.23,0.76-1.85,1.14c-1.23,0.78-2.53,1.42-3.83,2.09
				c-2.65,1.19-5.38,2.26-8.24,2.9c-1.42,0.35-2.87,0.59-4.33,0.77c-1.5,0.17-2.89,0.27-4.57,0.14l0.2,0.01l-3.1-0.17
				c-1.03-0.08-2.08-0.06-3.1-0.29c-2.05-0.36-4.11-0.71-6.08-1.43c-2.02-0.55-3.93-1.43-5.82-2.34c-0.94-0.46-1.81-1.06-2.72-1.59
				c-0.45-0.28-0.9-0.53-1.34-0.83l-1.26-0.94c-3.35-2.53-6.32-5.56-8.7-9.01C365.72,575.87,363.78,572.1,362.66,568.08z" class="st7"></path>
		</g>
		<g>
			<path d="M350.73,526.06c3.01,0.8,5.96,1.53,8.91,2.18c2.96,0.63,5.91,1.2,8.88,1.58c2.96,0.46,5.95,0.71,8.95,0.86
				c3.01,0.21,6.02,0.09,9.15,0.15c-2.91,1.13-6,1.9-9.12,2.12c-1.56,0.22-3.13,0.12-4.7,0.17c-1.56-0.11-3.13-0.19-4.68-0.42
				c-3.1-0.46-6.16-1.18-9.09-2.29C356.11,529.33,353.26,527.95,350.73,526.06z" class="st7"></path>
		</g>
		<g>
			<path d="M342.42,533.22c5.41,1.11,10.61,2.11,15.9,2.66c2.64,0.29,5.28,0.52,7.95,0.6c2.67,0.15,5.35,0.06,8.13,0.17
				c-2.57,1.08-5.29,1.82-8.06,2.1c-2.76,0.34-5.57,0.34-8.33,0.02c-2.77-0.29-5.5-0.91-8.13-1.81
				C347.25,536.07,344.69,534.9,342.42,533.22z" class="st7"></path>
		</g>
		<g>
			<path d="M420.57,564.34c-0.25,4.02-3.57,7.09-7.42,6.85c-3.85-0.24-6.77-3.69-6.52-7.71
				c0.25-4.02,3.57-7.09,7.42-6.85C417.9,556.87,420.82,560.32,420.57,564.34z" class="st0"></path>
		</g>
		<g>
			<path d="M402.96,572.76c-0.12,2.01-3.35,3.45-7.2,3.21c-3.85-0.24-6.87-2.06-6.75-4.07c0.12-2.01,3.35-3.45,7.2-3.21
				C400.06,568.93,403.08,570.75,402.96,572.76z" class="st0"></path>
		</g>
		<g>
			<path d="M442.94,537.08c-2.26-2.47-4.77-4.68-7.41-6.66c-2.63-2-5.42-3.77-8.33-5.27
				c-5.82-3.01-12.08-5.08-18.51-5.98c-6.43-0.95-13-1.07-19.48-0.33c-6.48,0.74-12.88,2.45-18.94,5.14
				c2.9-1.63,5.98-2.92,9.13-3.98c3.16-1.02,6.4-1.77,9.68-2.27c6.57-0.98,13.24-0.86,19.81,0c6.56,1.04,12.98,3.15,18.8,6.43
				C433.51,527.43,438.8,531.76,442.94,537.08z" class="st7"></path>
		</g>
	</g>
	<g>
		<path d="M502.52,618.08c-0.31,7.43-6.73,10.03-14.49,9.7c-7.76-0.33-13.93-3.45-13.62-10.88
			c0.31-7.43,6.99-16.36,14.75-16.04C496.92,601.19,502.83,610.65,502.52,618.08z" class="st10"></path>
	</g>
	<g>
		<g>
			
				<ellipse ry="46.39" rx="29.16" cy="640.34" cx="356.69" class="st11" transform="matrix(0.042 -0.9991 0.9991 0.042 -298.0821 969.7957)"></ellipse>
		</g>
		<g>
			<g>
				<g>
					<path d="M343.63,625.76c2,5.77,3.99,11.53,5.99,17.3c0.29,0.83,0.57,1.65,0.86,2.48c0.49,1.43,2.2,2.41,3.99,2.08
						c1.68-0.31,2.95-1.83,2.45-3.26c-2-5.77-3.99-11.53-5.99-17.3c-0.29-0.83-0.57-1.65-0.86-2.48c-0.49-1.43-2.2-2.41-3.99-2.08
						C344.4,622.81,343.14,624.33,343.63,625.76L343.63,625.76z" class="st12"></path>
				</g>
			</g>
			<g>
				<g>
					<path d="M361.21,628.32c2,5.77,3.99,11.53,5.99,17.3c0.29,0.83,0.57,1.65,0.86,2.48c0.49,1.43,2.2,2.41,3.99,2.08
						c1.68-0.31,2.95-1.83,2.45-3.26c-2-5.77-3.99-11.53-5.99-17.3c-0.29-0.83-0.57-1.65-0.86-2.48c-0.49-1.43-2.2-2.41-3.99-2.08
						C361.98,625.37,360.72,626.89,361.21,628.32L361.21,628.32z" class="st12"></path>
				</g>
			</g>
		</g>
	</g>
	<g>
		<g>
			<ellipse ry="32.49" rx="51.7" cy="651.72" cx="629.13" class="st11"></ellipse>
		</g>
		<g>
			<g>
				<g>
					<path d="M613.91,636.1c2.49,6.33,4.99,12.65,7.48,18.98c0.36,0.91,0.72,1.82,1.07,2.72
						c0.62,1.56,2.56,2.58,4.54,2.13c1.86-0.42,3.2-2.18,2.58-3.75c-2.49-6.33-4.99-12.65-7.48-18.98
						c-0.36-0.91-0.72-1.82-1.07-2.72c-0.62-1.56-2.56-2.58-4.54-2.13C614.63,632.77,613.29,634.52,613.91,636.1L613.91,636.1z" class="st12"></path>
				</g>
			</g>
			<g>
				<g>
					<path d="M633.61,638.13c2.49,6.33,4.99,12.65,7.48,18.98c0.36,0.91,0.72,1.82,1.07,2.72
						c0.62,1.56,2.56,2.58,4.54,2.13c1.86-0.42,3.2-2.18,2.58-3.75c-2.49-6.33-4.99-12.65-7.48-18.98
						c-0.36-0.91-0.72-1.82-1.07-2.72c-0.62-1.56-2.56-2.58-4.54-2.13C634.33,634.8,632.99,636.56,633.61,638.13L633.61,638.13z" class="st12"></path>
				</g>
			</g>
		</g>
	</g>
	<path d="M510.67,585.2c-0.66-0.67-16.29-16.15-34.89-3.98l-4.68-7.15c19.65-12.86,38.48-2.25,45.69,5.16L510.67,585.2z"></path>
	<g>
		<g>
			<g>
				<path d="M307.35,580.86l-0.39-42.43c9.8-17.6,27.52-15.86,27.52-15.86c142.67-19.05,139.1-91.73,155.48-101.56
					c16.38-9.82,23.98,12.86,23.98,12.86s53.48,123.6,268.57,130.41c0,0,49.74,33.96,109.34-64.88c0,0-68.92,3.61-98.93-76.71
					c-7.32-19.6-16.22-30.13-30.11-55.5c-37.16-67.9-99.36-169.91-216.79-94.55c0,0-183.08-107.5-245.1,177.5
					c-8.59,39.5-39.49,49.71-80.79,57.85C220.14,507.99,240.97,571.04,307.35,580.86z" class="st2"></path>
			</g>
		</g>
		<g>
			<g>
				<g>
					<path d="M346.75,292.75c-21.42,31.45-40.36,76.18-53.99,139.02c-9,41.48-40.46,52.4-82.48,61.21
						c0,0,21.9,57.25,76.56,76.03l11.45-44.7c10.08-18.53,28.07-16.82,28.07-16.82c145.1-20.93,141.95-97.13,158.67-107.54
						c16.71-10.41,24.28,13.32,24.28,13.32s53.51,129.25,272.01,134.94c0,0,56.52,27.79,95.63-57.57c0,0-33.62-9.72-76.21-89.21
						c-11.22-20.94-23.46-33.98-37.4-60.49c-37.3-70.95-100.52-176.76-220.35-96.94c0,0-97.28-58.53-175.57,23.06" class="st16"></path>
					<path d="M343.68,290.95c-18.89,27.85-31.91,59.42-41.78,91.47c-3.13,10.16-5.94,20.41-8.48,30.73
						c-2.36,9.58-3.88,19.52-7.29,28.8c-4.96,13.46-14.43,24.15-26.8,31.28c-15.24,8.79-32.93,12.72-49.98,16.31
						c-1.76,0.37-3.15,2.66-2.49,4.38c9.12,23.74,26.5,45.74,46.57,61.05c9.85,7.51,20.78,13.38,32.48,17.46
						c1.8,0.63,3.93-0.72,4.38-2.49c2.76-10.76,5.52-21.53,8.27-32.29c1.01-3.94,1.55-8.6,3.16-12.35
						c3.14-7.28,11.63-12.5,19.17-13.91c1.75-0.33,3.45-0.28,5.21-0.37c4.85-0.23,9.83-1.41,14.62-2.27
						c11.51-2.06,22.94-4.65,34.16-7.97c17.33-5.13,34.35-12,49.75-21.54c20.08-12.45,36.34-29.48,47.52-50.29
						c3.36-6.26,6.14-12.81,9.53-19.06c0.63-1.15,1.28-2.29,2-3.39c0.3-0.46,0.62-0.91,0.95-1.35c0.32-0.43-0.52,0.6,0.08-0.09
						c0.2-0.22,0.38-0.46,0.59-0.67c0.33-0.34,0.66-0.66,1.01-0.98c0.21-0.2,0.92-0.66-0.03,0c0.32-0.22,0.63-0.45,0.97-0.63
						c3.16-1.65,6.28-2.69,9.64-0.98c5.62,2.87,7.46,9.06,9.72,14.05c1.34,2.98,2.92,5.85,4.55,8.68
						c7.94,13.72,17.98,26.28,28.99,37.64c18.16,18.73,39.52,34.34,62.43,46.75c32.6,17.66,68.36,29.02,104.78,35.53
						c23.42,4.19,47.16,6.47,70.93,7.22c0.62,0.02,2.72-0.14,1.28-0.39c0.04,0.01,0.08,0.05,0.13,0.06c0.2,0.04,0.39,0.2,0.59,0.26
						c1.07,0.33,2.12,0.88,3.18,1.26c2.97,1.04,6.04,1.79,9.15,2.3c10.56,1.74,21.46,0.9,31.56-2.73
						c15.62-5.6,28.22-16.79,38.17-29.84c7.09-9.31,12.8-19.57,17.7-30.18c0.96-2.08,0.24-4.54-2.13-5.23
						c-0.19-0.06-0.39-0.12-0.58-0.2c-0.23-0.09-0.45-0.17-0.68-0.26c0.06,0.02,0.63,0.31-0.31-0.14c-2.26-1.1-4.45-2.29-6.57-3.65
						c-8.72-5.57-16.33-12.86-23.29-20.46c-13.18-14.39-24.18-30.7-34.05-47.5c-5.83-9.93-11-20.22-17.22-29.92
						c-5.47-8.52-11.36-16.78-16.8-25.33c-9.52-14.95-17.2-30.94-26.02-46.3c-7.72-13.44-16.01-26.59-25.34-38.98
						c-18.16-24.13-40.77-46.38-69.73-56.73c-34.11-12.19-70.24-3.26-100.95,13.89c-5.18,2.89-10.21,6.01-15.16,9.29
						c1.2,0,2.4,0,3.6,0c-11.89-7.13-25.65-11.97-38.98-15.45c-28.52-7.45-59.19-7.53-87.01,2.85
						c-20.59,7.68-38.67,20.47-53.89,36.22c-3.19,3.3,1.84,8.34,5.04,5.04c24.43-25.28,56.25-41.32,91.68-42.29
						c22.93-0.63,46.11,4.4,67.09,13.58c4.24,1.86,8.51,3.82,12.49,6.21c1.04,0.63,2.56,0.69,3.6,0
						c30.33-20.09,67.05-34.75,103.62-24.67c29.12,8.03,52.19,29.54,70.31,52.85c9.44,12.14,17.77,25.14,25.53,38.41
						c8.42,14.4,15.65,29.48,24.29,43.75c5.41,8.93,11.37,17.48,17.15,26.16c5.94,8.93,11.05,18.23,16.3,27.58
						c10.07,17.95,21.36,35.36,34.73,51.05c7.69,9.02,16.15,17.51,25.8,24.43c3.66,2.62,8.41,6.25,12.94,7.26
						c0.18,0.04,0.36,0.13,0.54,0.18c-0.71-1.74-1.42-3.49-2.13-5.23c-13.27,28.72-36.18,60.44-71.26,60.13
						c-6.57-0.06-12.78-1.19-19.15-3.67c-0.36-0.14,0.71,0.14-0.34-0.16c-5.14-1.47-11.47-0.8-16.85-1.09
						c-12.07-0.65-24.12-1.71-36.12-3.24c-38.59-4.93-76.95-14.91-112.05-31.9c-24.61-11.91-47.64-27.22-67.37-46.21
						c-12.27-11.81-22.93-24.44-31.74-38.87c-2.07-3.4-4.04-6.88-5.76-10.48c-0.29-0.6-0.57-1.2-0.83-1.82
						c0.89,2.12-0.24-0.77-0.38-1.12c-1.02-2.51-2.22-4.95-3.74-7.19c-4-5.85-10.05-10.41-17.49-9.26
						c-4.22,0.65-8.36,2.78-11.14,6.07c-3.86,4.55-6.2,10.29-8.76,15.61c-8.89,18.43-20.08,34.78-36.13,47.77
						c-29.79,24.12-69.05,34.54-106.22,40.18c-4.98,0.76-9.8,0.55-14.65,2.38c-7.7,2.91-16.24,9.44-19.05,17.48
						c-1.45,4.15-2.23,8.68-3.32,12.94c-1.8,7.03-3.6,14.05-5.4,21.08c-0.9,3.53-1.81,7.06-2.71,10.59
						c1.46-0.83,2.92-1.66,4.38-2.49c-31.81-11.1-56.37-37.27-71.09-67c-0.87-1.75-1.69-3.52-2.48-5.31
						c-0.2-0.45-0.42-0.74-0.04-0.08c-0.08-0.14-0.13-0.52-0.25-0.61c-0.1-0.07-0.17-0.41-0.22-0.54c-0.83,1.46-1.66,2.92-2.49,4.38
						c28.98-6.1,61.85-14.51,77.23-42.5c4-7.28,6.4-15.13,8.18-23.21c2.48-11.26,5.24-22.46,8.35-33.56
						c5.28-18.83,11.52-37.45,19.29-55.4c7.12-16.44,15.48-32.36,25.55-47.2C352.41,290.75,346.24,287.18,343.68,290.95
						L343.68,290.95z"></path>
				</g>
				<g>
					<g>
						<path d="M346.75,298.47c7.35,0,7.37-11.43,0-11.43C339.4,287.04,339.39,298.47,346.75,298.47L346.75,298.47z"></path>
					</g>
				</g>
			</g>
		</g>
	</g>
	<path d="M388.29,634.56c-38.48,0-73.19-28.14-81.1-68.44l0,0c-8.95-45.59,19.73-89.75,63.95-98.43
		c21.45-4.22,43.29,0.45,61.51,13.12c18.18,12.64,30.58,31.76,34.91,53.82c4.33,22.06,0.09,44.44-11.96,63.02
		c-12.08,18.62-30.54,31.2-51.98,35.41C398.48,634.07,393.35,634.56,388.29,634.56z M315.57,564.48
		c8.05,40.97,46.8,67.96,86.39,60.2c19.15-3.76,35.65-15.01,46.46-31.67c10.83-16.71,14.65-36.85,10.75-56.72
		c-3.9-19.87-15.06-37.08-31.4-48.45c-16.31-11.33-35.82-15.51-54.98-11.75C333.19,483.86,307.53,523.51,315.57,564.48
		L315.57,564.48z"></path>
	<path d="M590.79,646.77c-38.48,0-73.19-28.14-81.11-68.44l0,0c-8.95-45.59,19.73-89.75,63.95-98.43
		c21.45-4.22,43.29,0.45,61.51,13.12c18.18,12.64,30.58,31.76,34.91,53.82c8.96,45.59-19.73,89.75-63.94,98.44
		C600.97,646.28,595.85,646.77,590.79,646.77z M518.07,576.69c8.05,40.97,46.8,67.97,86.39,60.2c39.59-7.78,65.25-47.43,57.2-88.4
		c-3.9-19.87-15.06-37.08-31.4-48.45c-16.3-11.34-35.82-15.51-54.98-11.75C535.69,496.06,510.03,535.72,518.07,576.69L518.07,576.69
		z"></path>
	<g>
		<g class="st17">
			<g>
				<path d="M728.83,347.84c-9.73-15.53-44.27-61.66-107.41-54.51c0,0,52.69,10.38,76.76,44.3
					c2.45,3.45,4.45,7.18,6.22,11.02c3.12,6.74,13.81,21.64,21.5,19.18c3.59-1.15,3.59-1.83,4.68-4.73
					C732.49,358.06,731.69,352.4,728.83,347.84z" class="st0"></path>
			</g>
		</g>
		<g class="st17">
			<g>
				<path d="M726.02,392.9c3.41,7.22,11.01,10.8,16.97,7.98c5.97-2.81,8.04-10.95,4.63-18.17
					c-3.41-7.22-11.01-10.8-16.97-7.98C724.68,377.54,722.61,385.68,726.02,392.9z" class="st0"></path>
			</g>
		</g>
	</g>
	<g>
		<path d="M731.65,560.22c0,0,43.44-18.94,58.16,16.99c16.37,39.96-9.71,71.28-73.15,57.31" class="st3"></path>
		<path d="M733.45,563.3c-1.53,0.66,0.29-0.1,0.84-0.31c1.31-0.49,2.64-0.93,3.98-1.34c4.19-1.27,8.5-2.22,12.86-2.62
			c11.58-1.06,23.54,1.63,30.85,11.36c7.13,9.49,10.73,24.13,8.44,35.84c-2.12,10.82-9.42,18.97-19.39,23.4
			c-16.51,7.32-36.32,5.16-53.41,1.46c-4.47-0.97-6.38,5.9-1.89,6.87c27.22,5.9,69.79,7.31,80.48-25.62
			c4.25-13.1,1.27-28.36-4.89-40.37c-6.79-13.23-19.89-20.13-34.49-20.3c-9.11-0.11-18.6,1.84-26.97,5.47
			C725.66,558.97,729.28,565.11,733.45,563.3L733.45,563.3z"></path>
	</g>
	<g>
		<path d="M736.66,599.61l-2.04-1.99c0.05-0.05,1.2-1.23,3.25-2.96c6.96-5.87,25.18-18.78,44.11-11.94l-0.97,2.68
			c-17.54-6.35-34.73,5.89-41.31,11.44C737.77,598.48,736.67,599.6,736.66,599.61z" class="st18"></path>
		<path d="M763.66,610.91l-2.85-0.06c0.1-4.89-1.3-8.51-4.17-10.77c-6.56-5.18-18.75-2.05-18.87-2.02l-0.73-2.76
			c0.56-0.15,13.68-3.51,21.36,2.53C762.01,600.67,763.78,605.07,763.66,610.91z" class="st18"></path>
	</g>
	<g>
		<path d="M723.03,1053.93c0,0-4.99-183.84-77.29-305.85c0,0-88.62,67.45-230.41,8.4c0,0-48.02,117.24-48.83,296.1" class="st6"></path>
		<path d="M726.59,1053.93c-0.64-23.35-3.11-46.74-6.05-69.9c-6.46-50.98-16.64-101.74-32.93-150.53
			c-10.08-30.21-22.58-59.77-38.8-87.22c-0.89-1.51-3.33-2.45-4.87-1.28c-11.02,8.37-24.53,14.21-37.43,18.89
			c-33.67,12.22-70,15.57-105.51,11.71c-29.18-3.17-57.66-11.35-84.73-22.56c-1.92-0.8-3.73,0.89-4.38,2.49
			c-6.72,16.43-11.71,33.69-16.42,50.77c-12.43,45.02-20.84,91.15-26.14,137.53c-4.12,36.1-6.21,72.41-6.4,108.74
			c-0.02,4.59,7.1,4.59,7.12,0c0.31-59.59,5.74-119.19,16.88-177.75c6.5-34.16,14.76-68.13,25.91-101.08
			c1.85-5.47,3.73-10.97,5.92-16.32c-1.46,0.83-2.92,1.66-4.38,2.49c44.35,18.37,92.8,28.15,140.83,22.96
			c27.63-2.98,55.1-10.58,79.6-23.87c4.35-2.36,8.77-4.85,12.72-7.85c-1.62-0.43-3.25-0.85-4.87-1.28
			c28.34,47.99,45.49,102.07,57.38,156.27c8.95,40.8,14.93,82.31,18.06,123.96c0.6,7.93,1.15,15.87,1.37,23.82
			C719.59,1058.51,726.72,1058.53,726.59,1053.93L726.59,1053.93z"></path>
	</g>
	<g>
		<g>
			<path d="M529.49,785.36l62.73-29.07c9.1-4.22,19.54,2.64,19.86,13.05l1.3,42.08c0.31,9.87-8.75,17.03-17.88,14.15
				l-68.31-21.59L529.49,785.36z" class="st20"></path>
			<path d="M531.28,788.44c12.91-5.98,25.81-11.96,38.72-17.94c7.03-3.26,14.07-6.52,21.1-9.78c1.51-0.7,3.01-1.53,4.65-1.89
				c6.17-1.35,11.96,3.47,12.71,9.55c0.79,6.39,0.44,13.1,0.63,19.53c0.24,7.65,0.55,15.31,0.71,22.97
				c0.1,4.91-2.16,9.58-7.05,11.26c-2.74,0.95-5.34,0.3-7.96-0.53c-6.52-2.06-13.04-4.12-19.56-6.18
				c-15.7-4.96-31.4-9.92-47.09-14.88c0.87,1.15,1.74,2.29,2.62,3.43c0.77-6.2,1.53-12.41,2.3-18.61c0.56-4.54-6.57-4.5-7.12,0
				c-0.77,6.2-1.53,12.41-2.3,18.61c-0.19,1.57,1.25,3,2.62,3.43c14.73,4.66,29.47,9.31,44.2,13.97c7.37,2.33,14.73,4.66,22.1,6.98
				c2.79,0.88,5.55,1.6,8.54,1.33c6.91-0.62,12.82-5.49,14.96-12.06c1.06-3.24,0.9-6.48,0.8-9.81c-0.14-4.41-0.27-8.81-0.41-13.22
				c-0.26-8.29-0.34-16.6-0.77-24.88c-0.67-12.87-12.94-21.97-25.24-16.51c-4.77,2.12-9.47,4.39-14.2,6.58
				c-16.18,7.5-32.35,14.99-48.53,22.49C523.53,784.21,527.15,790.36,531.28,788.44z"></path>
		</g>
		<g>
			<path d="M497.44,779.1l-63.33-29.7c-9.19-4.31-19.49,2.45-19.6,12.85l-0.45,42.07c-0.1,9.87,9.1,17.12,18.17,14.33
				l67.88-20.91L497.44,779.1z" class="st20"></path>
			<path d="M499.24,776.03c-14.03-6.58-28.05-13.16-42.08-19.73c-6.66-3.12-13.3-6.26-19.97-9.36c-3.26-1.52-6.55-2.64-10.22-2.34
				c-6.78,0.56-12.64,5.19-14.93,11.57c-1.14,3.16-1.09,6.39-1.13,9.69c-0.05,4.41-0.09,8.81-0.14,13.22
				c-0.09,8.29-0.36,16.59-0.26,24.88c0.14,12.05,10.76,21.46,22.82,18.1c5.66-1.58,11.24-3.46,16.86-5.19
				c16.96-5.23,33.92-10.45,50.88-15.68c2.01-0.62,2.77-2.42,2.49-4.38c-0.89-6.21-1.78-12.42-2.68-18.63
				c-0.65-4.52-7.51-2.6-6.87,1.89c0.89,6.21,1.78,12.42,2.68,18.63c0.83-1.46,1.66-2.92,2.49-4.38
				c-13.45,4.14-26.9,8.29-40.35,12.43c-7.74,2.39-15.48,4.77-23.23,7.16c-1.42,0.44-2.83,0.92-4.26,1.31
				c-5.91,1.62-11.9-1.89-13.36-7.91c-0.58-2.37-0.31-5.01-0.29-7.43c0.04-4.23,0.09-8.46,0.13-12.69
				c0.08-7.98,0.12-15.97,0.25-23.95c0.14-8.43,7.31-13.85,15.25-10.27c5.89,2.66,11.7,5.49,17.55,8.23c14.93,7,29.85,14,44.78,21
				C499.77,784.12,503.39,777.98,499.24,776.03z"></path>
		</g>
		<g>
			
				<ellipse ry="18.56" rx="15.94" cy="789.78" cx="512.19" class="st20" transform="matrix(0.172 -0.9851 0.9851 0.172 -353.9077 1158.5068)"></ellipse>
			<path d="M490.2,787.75c-0.62,8.84,5.55,16.43,13.42,19.7c8.07,3.35,17.76,2.26,24.45-3.5c6.51-5.6,7.91-15.14,3.66-22.52
				c-4.34-7.53-13.4-11.78-21.96-11.19C499.86,770.92,491.26,777.56,490.2,787.75c-0.2,1.92,1.78,3.56,3.56,3.56
				c2.09,0,3.36-1.64,3.56-3.56c0.59-5.62,5.83-9.28,11.05-10.22c5.83-1.04,12.44,1.18,16.14,5.88c3.3,4.19,3.58,10.15-0.13,14.2
				c-4.11,4.48-10.71,5.54-16.38,3.87c-6.17-1.82-11.14-7.13-10.68-13.74c0.13-1.92-1.73-3.56-3.56-3.56
				C491.72,784.19,490.33,785.82,490.2,787.75z"></path>
		</g>
	</g>
	<g>
		<path d="M400.87,754.65c0,0-61.72,43.68-82.05,94.07l80.44-32.56l14.93-57.64L400.87,754.65z" class="st6"></path>
		<path d="M399.07,751.58c-24.53,17.39-47.19,39.23-64.97,63.43c-7.49,10.19-13.93,21.06-18.72,32.77c-0.98,2.4,1.99,5.35,4.38,4.38
			c19.86-8.04,39.72-16.08,59.58-24.12c6.9-2.79,14.14-5.21,20.85-8.44c3.16-1.52,3.39-5.96,4.19-9.07
			c1.57-6.05,3.13-12.09,4.7-18.14c2.84-10.98,5.69-21.95,8.53-32.93c0.49-1.88-0.61-3.84-2.49-4.38
			c-4.44-1.29-8.87-2.58-13.31-3.87c-4.41-1.28-6.29,5.59-1.89,6.87c4.44,1.29,8.87,2.58,13.31,3.87c-0.83-1.46-1.66-2.92-2.49-4.38
			c-4.98,19.21-9.95,38.43-14.93,57.64c0.83-0.83,1.66-1.66,2.49-2.49c-23.45,9.49-46.91,18.99-70.36,28.48
			c-3.36,1.36-6.72,2.72-10.08,4.08c1.46,1.46,2.92,2.92,4.38,4.38c8.12-19.86,21.7-37.3,36.29-52.82
			c11.37-12.09,23.73-23.29,36.77-33.56c2.39-1.88,4.81-3.75,7.36-5.56C406.37,755.1,402.82,748.92,399.07,751.58z"></path>
	</g>
	<g>
		<path d="M461.96,874.53c11.57,3.79,28.09-3.13,30-6.92c3.02-5.99,5.29-9.62,4.65-13.16
			c-0.38-2.14-2.89-2.96-4.68-1.73c-12.77,8.78-36.87,4.27-36.87,4.27s30.77,6.81,43.23-9.33c7.24-9.37,2.42-15.25-2.9-18.54
			c-3.48-2.15-7.78-1.64-11.07,0.8c-8.85,6.6-31.29,3.1-31.29,3.1c19.54,2.48,29.46-0.43,34.37-4.68c6.1-5.28,3.79-15.35-3.94-17.65
			c-48.61-14.47-151.97,14.59-151.97,14.59c-0.55,0.29-1.08,0.58-1.61,0.88c-38.97,21.73-35.37,83.63,10.94,91.58
			c40.52,6.95,94.64,1.57,137.1-23.15c9.86-5.74,16.02-16.25,16.53-27.66c0.01-0.15,0.01-0.31,0.02-0.46" class="st3"></path>
		<path d="M461.29,878.4c9.54,2.84,21.15,0.42,29.57-4.65c4.06-2.44,5.74-6.24,7.69-10.46c1.81-3.93,3.6-9.38,0.16-12.98
			c-3.97-4.17-8.08-0.9-12.12,0.89c-4.31,1.91-9.04,2.62-13.72,2.9c-5.69,0.34-11.52,0.04-17.13-0.99c-5-0.92-6.29,6.68-1.35,7.76
			c12.78,2.79,28.45,2.58,39.85-4.39c8.14-4.98,15.49-16.1,9.26-25.21c-2.84-4.15-7.84-7.42-12.94-7.42
			c-5.28,0-8.79,3.84-13.68,5.09c-7.35,1.88-15.72,1.35-23.17,0.2c-0.45,2.59-0.9,5.17-1.35,7.76c9.89,1.2,20.76,2.02,30.33-1.44
			c7.41-2.68,13.47-8.99,11.85-17.43c-1.85-9.64-11.14-11.84-19.47-13.32c-8.26-1.46-16.68-1.92-25.05-1.97
			c-34.68-0.21-69.53,6.53-103.14,14.58c-7.78,1.86-15.6,3.09-22.37,7.5c-13.68,8.91-22.82,23.92-24.84,40.09
			c-1.94,15.54,2.48,31.61,13.47,42.99c13.25,13.72,33.1,15.45,51.12,16.3c23.42,1.09,46.94-1.34,69.61-7.37
			c11.78-3.14,23.31-7.29,34.29-12.62c10.46-5.08,20.35-10.53,25.95-21.19c2.56-4.88,3.99-10.36,4.23-15.86
			c0.22-4.99-7.53-6.41-7.76-1.35c-0.47,10.68-5.72,20.05-14.94,25.58c-9.42,5.65-19.7,10.04-30.06,13.64
			c-20.38,7.09-41.89,10.77-63.44,11.48c-10.01,0.33-20.04-0.01-30-1.13c-8.15-0.92-16.35-2.01-23.73-5.82
			c-12.26-6.34-19.72-18.88-21.11-32.42c-1.43-13.94,3.26-28.14,12.8-38.43c3.5-3.77,8.49-8.14,13.15-9.85
			c2.29-0.84,4.82-1.29,7.18-1.9c27.44-7.02,55.48-12.52,83.7-15.12c15.88-1.46,32.15-2.18,47.96,0.35
			c5.38,0.86,17.57,2.22,14.48,10.66c-2.11,5.75-11.38,6.69-16.4,7.02c-5.51,0.36-11.01-0.07-16.48-0.73
			c-5-0.61-6.39,6.98-1.35,7.76c5.14,0.79,10.42,1.07,15.61,0.95c4.07-0.09,8.15-0.53,12.07-1.64c3.75-1.06,8.09-5.35,11.99-4.28
			c3.3,0.91,6.46,4.4,5.89,7.93c-0.7,4.28-4.64,8.03-8.2,10.18c-6.15,3.7-13.77,4.49-20.81,4.45c-4.38-0.02-8.87-0.45-13.17-1.38
			c-0.45,2.59-0.9,5.17-1.35,7.76c10.78,1.99,23.33,2.21,33.67-1.76c1.27-0.49,3.75-1.18,4.62-2.22c1-0.25,1.04-0.67,0.12-1.25
			c-0.02,0.21-0.03,0.41-0.05,0.62c-0.4,0.47-0.56,1.98-0.85,2.65c-1.48,3.5-2.5,6.59-5.56,8.4c-6.81,4.03-16.09,5.6-23.69,3.34
			C457.79,869.21,456.48,876.97,461.29,878.4L461.29,878.4z"></path>
	</g>
	<path d="M452.76,687.06c15.32,3.46,34.44,0.8,40.86-15.47c-2.98,0.79-5.95,1.57-8.93,2.36c9.84,11.78,25.12,21.43,40.73,21.68
		c6.88,0.11,6.88-10.58,0-10.69c-12.85-0.21-25.15-8.95-33.18-18.55c-2.85-3.4-7.61-1-8.93,2.36c-2.52,6.4-9.79,8.47-15.81,8.81
		c-3.05,0.17-6.1,0.02-9.13-0.32c-1.1-0.12,0.94,0.17-0.58-0.09c-0.39-0.07-0.79-0.13-1.18-0.2c-0.34-0.06-0.67-0.13-1.01-0.2
		C448.9,675.25,446.04,685.55,452.76,687.06L452.76,687.06z"></path>
	<g>
		<path d="M574.06,784.14c0,0,33.97-56.61,0-55.56c-33.97,1.05-46.61,34.76-46.61,34.76s-70.7-47.43-90.65-34.77
			c0,0-28.5,8.44,0,33.72l28.5,21.85c0,0-46.35,39.24-14.75,74c0,0,34.95,41.03,84.9,24.63c0,0,98.17,46.29,130.78,50.81
			c32.61,4.52,18.67-91.67,18.67-91.67S630.82,782.74,574.06,784.14z" class="st3"></path>
		<g>
			<path d="M578,786.45c7.9-13.21,17.24-30.98,15.55-46.81c-1.13-10.55-9.3-15.85-19.5-15.63c-14.28,0.31-27.67,6.79-37.43,17.08
				c-5.71,6.01-10.63,13.26-13.59,21.04c2.24-0.91,4.48-1.82,6.72-2.73c-21.56-14.44-45.85-29.23-71.16-35.68
				c-6.16-1.57-13.11-2.78-19.39-1.09c-1.25,0.34-2.41,0.85-3.6,1.37c-1.56,0.69,0.6-0.18-0.51,0.32c-1.87,0.84-3.78,1.49-5.56,2.54
				c-5.08,3.01-9.21,7.7-9.86,13.75c-1.05,9.84,6.87,19.04,13.88,24.91c9.45,7.91,19.64,15.07,29.43,22.57
				c-0.31-2.39-0.62-4.79-0.93-7.18c-15.93,13.58-30.06,35.77-26.52,57.4c3.54,21.63,25.51,37.99,44.32,46.08
				c18.17,7.81,37.93,8.76,56.8,2.8c-1.17-0.15-2.35-0.31-3.52-0.46c20.09,9.47,40.43,18.42,60.92,26.97
				c15.34,6.4,30.8,12.61,46.57,17.86c9.5,3.16,23.25,9.23,33.36,5.85c10.13-3.39,14.14-15.21,16.04-24.66
				c2.62-13.06,2.71-26.62,2.16-39.88c-0.39-9.55-1.2-19.1-2.41-28.59c-0.76-5.93-4.54-8.7-8.81-12.76
				c-28.42-27.05-66.22-52.55-106.93-51.94c-5.88,0.09-5.9,9.23,0,9.14c26.98-0.4,52.24,12.12,73.83,27.33
				c8.47,5.97,16.51,12.54,24.11,19.57c0.51,0.47,9.34,9.67,9.64,9.5c-0.89,0.5-1.43-4.41-0.94-0.46c0.29,2.34,0.56,4.69,0.8,7.03
				c0.77,7.37,1.31,14.77,1.6,22.18c0.58,15.33,1.76,34.91-5.91,48.85c-2.62,4.76-6.06,7-11.51,6.18
				c-8.24-1.23-16.38-4.05-24.24-6.71c-21.13-7.15-41.77-15.8-62.23-24.68c-13.44-5.84-26.75-11.93-40.07-18.03
				c-1.64-0.75-2.98-1.39-4.91-1.11c-3.44,0.49-6.88,2.02-10.35,2.65c-3.9,0.71-7.85,1.04-11.81,1.06
				c-12.03,0.04-23.84-3.22-34.43-8.84c-12.51-6.63-27.09-17.42-31.85-31.45c-6.46-19.06,6.5-38.62,19.59-51.49
				c1.02-1,2.05-1.99,3.14-2.92c2.49-2.12,1.2-5.55-0.93-7.18c-8.62-6.61-17.25-13.22-25.87-19.84
				c-8.28-6.35-19.64-18.85-6.77-26.06c6.91-3.87,15.14-3.55,23.71-1.08c14.44,4.16,28.05,11.3,41.1,18.63
				c8.62,4.84,17.15,9.94,25.37,15.44c2.66,1.78,5.74-0.16,6.72-2.73c0.35-0.91-0.39,0.82,0.09-0.23c0.5-1.09,1.01-2.16,1.56-3.23
				c1.67-3.19,3.6-6.28,5.79-9.14c6.88-8.95,16.39-15.73,27.56-17.99c7.68-1.55,17.2-2.07,17.71,7.7
				c0.42,8.19-3.11,16.85-6.33,24.21c-2.39,5.45-5.08,10.84-8.13,15.95C567.08,786.89,574.98,791.5,578,786.45z"></path>
		</g>
	</g>
	<g>
		<path d="M672.7,830.08c0,0,9.92,78.8-21.99,99.33c-14.48,9.32,77.46,20.06,94.22-9.86c0,0,61.42-112-61.75-200.18
			l-40.51,30.52" class="st6"></path>
		<g>
			<path d="M666.99,830.08c1.3,10.41,1.61,21.02,1.42,31.5c-0.33,17.34-1.87,36.74-10.81,52.05c-1.88,3.22-4.09,6.18-6.9,8.65
				c-2.08,1.83-4.89,3.06-6.28,5.57c-2.66,4.82,0.68,9.26,4.93,11.45c11.67,5.99,27.91,5.83,40.63,5.59
				c23.13-0.44,52.16-4.45,62.54-28.02c10.24-23.26,14.88-49.37,13.05-74.72c-3.88-53.73-36.97-96.99-79.51-127.7
				c-1.48-1.07-4.3-1.11-5.77,0c-13.5,10.17-27.01,20.35-40.51,30.52c-5.8,4.37-0.11,14.3,5.77,9.87
				c13.5-10.17,27.01-20.35,40.51-30.52c-1.92,0-3.85,0-5.77,0c36.21,26.13,65.59,62.28,72.68,107.36
				c3.97,25.25,0.48,51.71-8.72,75.48c-1.26,3.27-2.68,7.77-5.58,11.57c-8.02,10.51-25.25,12.99-37.43,14.12
				c-13.72,1.27-28.5,1.31-41.95-2.12c-1.04-0.27-2.07-0.56-3.09-0.89c-1.28-0.42-1.26-0.48-1.52-0.59
				c-1.32-0.56-0.7-0.42-0.72-0.35c0.12-0.35,0.68,0.89,0.75,1.44c0.17,1.37-0.52,3.01-0.58,3.44c-0.03,0.21-0.03,0.5-0.56,0.59
				c0.73-0.12,1.89-1.33,2.48-1.77c1.47-1.12,2.88-2.3,4.19-3.62c2.8-2.83,5.21-6.12,7.21-9.55c9.59-16.44,11.78-36.88,12.31-55.55
				c0.32-11.22,0.03-22.61-1.36-33.77C677.52,822.87,666.08,822.79,666.99,830.08L666.99,830.08z"></path>
		</g>
	</g>
	<g>
		<path d="M682.36,771.71c0.41,1.71,0.74,3.44,1.04,5.17c0.15,0.86,0.29,1.72,0.43,2.58c0.07,0.45,0.13,0.9,0.2,1.34
			c0.2,1.33-0.09-0.85,0.07,0.54c0.28,2.39,0.54,4.78,0.69,7.19c0.34,5.22,0.34,10.49-0.31,15.69c0.15-1.18-0.14,0.86-0.18,1.1
			c-0.1,0.6-0.22,1.21-0.34,1.81c-0.28,1.35-0.62,2.69-1.02,4.01c-0.17,0.57-0.36,1.13-0.56,1.68c-0.11,0.31-0.65,1.63-0.45,1.18
			c0.23-0.52-0.43,0.87-0.55,1.1c-0.33,0.65-0.69,1.28-1.07,1.9c-0.38,0.61-0.78,1.21-1.22,1.78c0.69-0.9-0.36,0.37-0.64,0.66
			c-0.44,0.46-0.9,0.9-1.37,1.32c-0.23,0.21-0.48,0.42-0.73,0.61c0.64-0.5,0.22-0.16-0.21,0.1c-0.64,0.38-1.26,0.76-1.91,1.11
			c-0.22,0.12-0.45,0.22-0.68,0.33c-0.57,0.27,0.72-0.23-0.3,0.1c-0.68,0.22-1.35,0.45-2.04,0.62c-0.36,0.09-0.72,0.16-1.08,0.24
			c-0.2,0.04-1.78,0.27-0.76,0.15c-3.06,0.37-5.71,2.36-5.71,5.71c0,2.8,2.63,6.09,5.71,5.71c28.7-3.48,28.88-37.11,25.44-59.22
			c-0.39-2.54-0.83-5.08-1.44-7.58C691.65,761.52,680.63,764.55,682.36,771.71L682.36,771.71z"></path>
	</g>
	<g>
		<path d="M508.92,501.66c15.64-8.31,31.27-16.63,46.91-24.94c7.7-4.09,15.38-8.2,23.09-12.27c13.14-6.95,28.23-8.19,41.74-1.29
			c8.23,4.2,16.28,8.8,24.4,13.2c6.47,3.5,12.24-6.36,5.77-9.87c-7.78-4.22-15.51-8.54-23.35-12.65
			c-16.65-8.73-35.69-8.85-52.43-0.27c-17.17,8.8-34.09,18.12-51.12,27.18c-6.93,3.68-13.85,7.36-20.78,11.05
			C496.65,495.25,502.42,505.12,508.92,501.66L508.92,501.66z"></path>
	</g>
	<g>
		<g>
			
				<ellipse ry="72.1" rx="76.1" cy="167.07" cx="180.34" class="st16" transform="matrix(0.98 -0.199 0.199 0.98 -29.6365 39.2226)"></ellipse>
			<g>
				<path d="M101.35,183.43c6.88,31.99,34.13,55.39,66.24,59.71c33,4.44,67.23-11.64,83.6-40.91
					c15.83-28.31,11.55-64.21-10.98-87.67c-23.28-24.24-60.44-30.53-91.1-17.67C115.12,111.14,94.37,146.92,101.35,183.43
					c1.1,5.77,9.92,3.33,8.82-2.43c-5.45-28.52,9.07-57.07,33.92-71.47c25.28-14.65,58.23-13.42,81.68,4.34
					c23.05,17.45,31.87,48.29,21.54,75.27c-10.48,27.38-38.41,45.14-67.33,45.62c-32.89,0.54-62.81-21.24-69.8-53.77
					C108.93,175.25,100.12,177.68,101.35,183.43z"></path>
			</g>
		</g>
		<g>
			<path d="M265.82,276.3l-34.07-57.08l-41.8,19.31c0,0,27.52,59.44,33.63,59.44
				C223.59,297.98,260.27,287.98,265.82,276.3z" class="st16"></path>
			<g>
				<path d="M269.77,274c-11.36-19.03-22.71-38.05-34.07-57.08c-1.35-2.27-3.99-2.69-6.25-1.64c-13.93,6.44-27.87,12.88-41.8,19.31
					c-2.39,1.1-2.59,4.2-1.64,6.25c6.66,14.38,13.63,28.68,21.35,42.53c2.12,3.8,4.29,7.58,6.74,11.18
					c1.68,2.47,3.54,5.38,6.16,6.97c2.3,1.4,4.38,0.93,6.75,0.22c4.08-1.21,8.12-2.55,12.12-4.02c6.25-2.3,12.5-4.85,18.3-8.14
					c4.69-2.66,9.81-6.05,12.34-10.98c2.68-5.23-5.21-9.86-7.89-4.61c-1.82,3.55-5.69,5.79-9.06,7.7
					c-4.53,2.57-9.32,4.64-14.18,6.49c-4.05,1.54-8.16,2.94-12.3,4.21c-1.06,0.33-2.25,0.53-3.27,0.97
					c-0.07,0.03-0.57,0.1-0.61,0.17c0.24-0.49,1.71,0.03,2.42,0.14c0.32,0.05,0.29,0.04,0.27,0.15c-0.02,0.09,0.37,0.36-0.17-0.17
					c-0.15-0.15-0.32-0.3-0.46-0.46c-0.37-0.43-0.76-0.85-1.12-1.3c-0.21-0.26-1.65-2.32-2.32-3.36c-2.34-3.6-4.47-7.34-6.54-11.1
					c-4.63-8.4-8.95-16.98-13.16-25.59c-2.54-5.18-5.04-10.38-7.46-15.62c-0.55,2.08-1.09,4.17-1.64,6.25
					c13.93-6.44,27.87-12.88,41.8-19.31c-2.08-0.55-4.17-1.09-6.25-1.64c11.36,19.03,22.71,38.05,34.07,57.08
					C264.89,283.66,272.8,279.07,269.77,274z"></path>
			</g>
		</g>
		<g>
			<polygon points="242.7,237.57 199.61,258.6 189.95,238.54 231.75,219.23" class="st0"></polygon>
			<g>
				<path d="M240.39,233.62c-12.55,6.12-25.09,12.25-37.64,18.37c-1.82,0.89-3.64,1.78-5.46,2.66c2.08,0.55,4.17,1.09,6.25,1.64
					c-3.22-6.69-6.43-13.37-9.65-20.06c-0.55,2.08-1.09,4.17-1.64,6.25c12.19-5.63,24.37-11.26,36.56-16.89
					c1.75-0.81,3.49-1.61,5.24-2.42c-2.08-0.55-4.17-1.09-6.25-1.64c3.65,6.11,7.3,12.23,10.95,18.34
					c3.01,5.05,10.92,0.45,7.89-4.61c-3.65-6.11-7.3-12.23-10.95-18.34c-1.35-2.27-3.99-2.69-6.25-1.64
					c-12.19,5.63-24.37,11.26-36.56,16.89c-1.75,0.81-3.49,1.61-5.24,2.42c-2.36,1.09-2.62,4.21-1.64,6.25
					c3.22,6.69,6.43,13.37,9.65,20.06c1.13,2.34,4.18,2.65,6.25,1.64c12.55-6.12,25.09-12.25,37.64-18.37
					c1.82-0.89,3.64-1.78,5.46-2.66C250.29,238.93,245.66,231.05,240.39,233.62z"></path>
			</g>
		</g>
		<g>
			<path d="M216.24,152.41c0.02,9.03-0.37,18.06-1.22,27.05c-0.42,4.43-0.95,8.86-1.61,13.26c-0.19,1.28-2.79,13.49-2.41,13.68
				c0.9-0.37,1.8-0.74,2.69-1.11c-0.15-0.3-0.3-0.6-0.45-0.9c-0.1-0.82-0.83-2-1.17-2.79c-0.81-1.88-1.65-3.74-2.54-5.58
				c-1.69-3.5-3.54-6.92-5.54-10.25c-4.2-7-9.09-13.57-14.45-19.72c-1.95-2.23-5.79-1.49-7.18,0.93c-3.88,6.76-1.93,13.8,0.62,20.63
				c2.96,7.94,2.62,15.34,0.96,23.56c-0.12,0.59-0.69,1.99-0.53,2.55c-0.42,1.12,0.11,1.08,1.59-0.12c1.98-0.26,2.26-0.75,0.85-1.49
				c-0.91-1.33-3.16-2.58-4.41-3.55c-3-2.33-6.07-4.55-9.24-6.64c-6.56-4.3-13.48-7.99-20.67-11.12c-2.28-0.99-4.88-0.65-6.25,1.64
				c-1.15,1.92-0.62,5.27,1.64,6.25c7.97,3.47,15.61,7.63,22.78,12.53c3.54,2.42,6.87,5.05,10.18,7.76c3,2.45,7.11,4.42,10.44,1.23
				c2.61-2.49,2.75-7.81,3.28-11.11c0.68-4.22,1.18-8.53,0.83-12.81c-0.38-4.56-1.72-8.64-3.3-12.9c-1.39-3.74-3.02-8.04-0.86-11.79
				c-2.39,0.31-4.79,0.62-7.18,0.93c6.47,7.43,12.05,15.56,16.63,24.28c2.16,4.11,3.7,8.53,5.86,12.62
				c2.02,3.83,6.38,6.34,10.59,4.28c4.2-2.05,4.25-7.67,4.96-11.7c0.95-5.42,1.74-10.87,2.39-16.33
				c1.31-11.04,1.91-22.15,1.89-33.27C225.37,146.53,216.23,146.52,216.24,152.41L216.24,152.41z"></path>
		</g>
		<g>
			<path d="M306.19,138.14c-10.9-3.12-22.58-3.13-33.48-0.03c-2.37,0.68-3.85,3.23-3.19,5.62c0.65,2.37,3.24,3.87,5.62,3.19
				c9.42-2.68,19.21-2.67,28.62,0.03c2.37,0.68,4.97-0.83,5.62-3.19C310.04,141.35,308.57,138.82,306.19,138.14L306.19,138.14z"></path>
		</g>
		<g>
			<path d="M301.29,86.12c-13.69,0.88-27,5.29-38.35,13.03c-2.04,1.39-2.95,4.02-1.64,6.25c1.18,2.02,4.21,3.04,6.25,1.64
				c10.01-6.83,21.63-11,33.74-11.78c2.46-0.16,4.57-1.99,4.57-4.57C305.87,88.34,303.77,85.96,301.29,86.12L301.29,86.12z"></path>
		</g>
		<g>
			<path d="M217.96,36.18c-2.54,12.63-5.08,25.26-7.61,37.9c-0.49,2.42,0.69,4.94,3.19,5.62c2.25,0.62,5.13-0.76,5.62-3.19
				c2.54-12.63,5.08-25.26,7.61-37.9c0.49-2.42-0.69-4.94-3.19-5.62C221.33,32.37,218.45,33.75,217.96,36.18L217.96,36.18z"></path>
		</g>
		<g>
			<path d="M153.91,54.78c-1.69,7.92-1.23,16.27,1.69,23.85c0.86,2.22,3.11,4.01,5.62,3.19c2.17-0.7,4.11-3.23,3.19-5.62
				c-0.64-1.67-1.17-3.37-1.58-5.11c-0.2-0.87-0.35-1.75-0.51-2.63c-0.18-0.99,0.06,0.8-0.04-0.3c-0.04-0.44-0.09-0.89-0.13-1.33
				c-0.14-1.72-0.15-3.44-0.05-5.16c0.02-0.38,0.05-0.76,0.09-1.14c0.02-0.21,0.14-1.87,0.06-0.68c0.06-0.88,0.29-1.78,0.47-2.63
				c0.5-2.33-0.69-5.05-3.19-5.62C157.24,51.07,154.44,52.28,153.91,54.78L153.91,54.78z"></path>
		</g>
		<g>
			<path d="M93.98,105.12c-7.39-9.55-16.7-17.59-27.16-23.63c-2.07-1.2-5.1-0.55-6.25,1.64c-1.15,2.18-0.57,4.98,1.64,6.25
				c2.5,1.44,4.93,3,7.28,4.67c0.54,0.39,1.08,0.78,1.61,1.18c0.01,0.01,1.13,0.86,0.49,0.36c0.23,0.18,0.47,0.36,0.7,0.55
				c1.16,0.92,2.29,1.87,3.41,2.84c4.34,3.81,8.29,8.04,11.82,12.6c1.47,1.9,4.94,1.66,6.46,0
				C95.83,109.57,95.55,107.15,93.98,105.12L93.98,105.12z"></path>
		</g>
		<g>
			<path d="M72.92,142.25c-12.67-4.37-26.19-5.27-39.38-3.03c-2.44,0.41-3.8,3.41-3.19,5.62c0.71,2.58,3.18,3.61,5.62,3.19
				c11.57-1.97,23.45-0.79,34.52,3.03c2.33,0.8,5-0.92,5.62-3.19C76.8,145.36,75.26,143.06,72.92,142.25L72.92,142.25z"></path>
		</g>
		<g>
			<path d="M66.7,177.27c-10.78,3.84-20.6,9.89-28.78,17.91c-1.71,1.68-1.81,4.81,0,6.46c1.84,1.69,4.64,1.79,6.46,0
				c3.9-3.83,6.99-6.29,11.53-9.13c2.12-1.33,4.31-2.54,6.55-3.64c0.61-0.3,1.23-0.59,1.85-0.87c0.28-0.13,0.55-0.25,0.83-0.37
				c0.23-0.1,0.61-0.27,0.16-0.08c1.26-0.53,2.53-1.01,3.82-1.47c2.25-0.8,3.99-3.15,3.19-5.62
				C71.6,178.24,69.11,176.41,66.7,177.27L66.7,177.27z"></path>
		</g>
	</g>
</g>
</svg>
